<svg xmlns="http://www.w3.org/2000/svg" viewBox="-1144.89 -1084.51 2289.79 2438.74">
<rect x="-1144.89" y="-1084.51" width="2289.79" height="2438.74" fill="#ffffff"/>
<path d="M1258.91,438.5 L-1676.91,1127.92" fill="none" stroke="#9a9a9a" stroke-width="2.37" stroke-linecap="round" stroke-linejoin="round"/>
<path d="M326.2,657.53 L326.2,-1842.85 M295.03,664.85 L295.03,-1835.53 M-193.41,779.55 L-193.41,-1720.83 M-224.59,786.87 L-224.59,-1713.51 M-713.03,901.57 L-713.03,-1598.81 M-744.2,908.89 L-744.2,-1591.48" fill="none" stroke="#9a9a9a" stroke-width="2.37" stroke-linecap="round" stroke-linejoin="round" stroke-dasharray="15 11"/>
<path d="M567.82,329.46 L591.82,346.37 M591.82,408.49 L591.82,346.37 M-967.82,706.99 L-961.82,711.21 M-961.82,773.34 L-961.82,711.21 M-967.82,769.11 L-961.82,773.34 M567.82,329.46 L-967.82,690.08 M591.82,408.49 L-961.82,773.34 M591.82,346.37 L-961.82,711.21 M670.7,593.54 L670.7,-681.62 M567.82,600.79 L567.82,414.13 M567.82,329.46 L567.82,62.41 M567.82,-22.25 L567.82,-657.46 M585.82,613.47 L585.82,409.9 M585.82,342.14 L585.82,58.19 M585.82,-9.57 L585.82,-661.69 M567.82,600.79 L585.82,613.47 M670.7,593.54 L585.82,613.47 M-967.82,978.31 L-967.82,-296.84 M-1070.7,985.56 L-1070.7,-295.23 M-1070.7,-295.23 L-1052.7,-282.55 M-1052.7,998.24 L-1052.7,-282.55 M-1070.7,985.56 L-1052.7,998.24 M-1068.1,-295.84 L-1070.7,-295.23 M-967.82,978.31 L-1052.7,998.24 M-1050.1,-283.16 L-1052.7,-282.55" fill="none" stroke="#9a9a9a" stroke-width="2.37" stroke-linecap="round" stroke-linejoin="round"/>
<path d="M567.82,-22.25 L591.82,-5.34 M591.82,56.78 L591.82,-5.34 M-985.82,404.71 L-985.82,342.59 M-985.82,342.59 L-961.82,359.5 M-961.82,421.62 L-961.82,359.5 M-985.82,404.71 L-961.82,421.62 M567.82,-22.25 L-985.82,342.59 M591.82,56.78 L-961.82,421.62 M591.82,-5.34 L-961.82,359.5 M650.1,-788.85 L674.1,-771.94 M674.1,-682.42 L674.1,-771.94 M-1068.1,-295.84 L-1068.1,-385.37 M-1068.1,-385.37 L-1044.1,-368.46 M-1044.1,-278.93 L-1044.1,-368.46 M-1068.1,-295.84 L-1044.1,-278.93 M650.1,-788.85 L-1068.1,-385.37 M674.1,-682.42 L-1044.1,-278.93 M674.1,-771.94 L-1044.1,-368.46" fill="none" stroke="#111111" stroke-width="3.34" stroke-linecap="round" stroke-linejoin="round" stroke-dasharray="26 20"/>
<path d="M567.82,-22.25 L591.82,-5.34 M591.82,56.78 L591.82,-5.34 M-967.82,355.27 L-961.82,359.5 M-961.82,421.62 L-961.82,359.5 M-967.82,417.39 L-961.82,421.62 M567.82,-22.25 L-967.82,338.36 M591.82,56.78 L-961.82,421.62 M591.82,-5.34 L-961.82,359.5 M650.1,-788.85 L674.1,-771.94 M674.1,-682.42 L674.1,-771.94 M-1068.1,-295.84 L-1068.1,-385.37 M-1068.1,-385.37 L-1044.1,-368.46 M-1044.1,-278.93 L-1044.1,-368.46 M-1068.1,-295.84 L-1044.1,-278.93 M650.1,-788.85 L-1068.1,-385.37 M674.1,-682.42 L-1044.1,-278.93 M674.1,-771.94 L-1044.1,-368.46" fill="none" stroke="#111111" stroke-width="7.42" stroke-linecap="round" stroke-linejoin="round"/>
<path d="M688.61,-601.54 L675.54,-598.71 L658.05,-611.04 L658.05,-611.04 L654.07,-616.58 L647.52,-618.46 L642.7,-622.8 L635.6,-623.9 L629.99,-627.12 L623.5,-629.09 L620.77,-630.26 L620.77,-630.26 L620.77,-630.26 L622.79,-628.08 L626.82,-622.63 L631.75,-618.43 L635.17,-612.11 L640.88,-609.04 L644.86,-603.5 L651.41,-601.62 L651.41,-601.62 L668.91,-589.3 L670.64,-576.04 Z" fill="#ffffff" stroke="#111111" stroke-width="2.97" stroke-linejoin="round"/>
<path d="M620.77,-630.26 L530.91,-693.56" fill="none" stroke="#9a9a9a" stroke-width="3.26" stroke-linecap="round" stroke-dasharray="4 13"/>
<circle cx="530.91" cy="-693.56" r="6.46" fill="#111111"/>
<path d="M402.24,-534.3 L389.18,-531.47 L371.68,-543.79 L371.68,-543.79 L367.71,-549.33 L361.15,-551.21 L356.33,-555.55 L349.23,-556.65 L343.62,-559.87 L337.13,-561.84 L334.4,-563.01 L334.4,-563.01 L334.4,-563.01 L336.42,-560.83 L340.46,-555.38 L345.38,-551.19 L348.8,-544.87 L354.52,-541.79 L358.49,-536.25 L365.05,-534.37 L365.05,-534.37 L382.54,-522.05 L384.28,-508.79 Z" fill="#ffffff" stroke="#111111" stroke-width="2.97" stroke-linejoin="round"/>
<path d="M334.4,-563.01 L244.55,-626.31" fill="none" stroke="#9a9a9a" stroke-width="3.26" stroke-linecap="round" stroke-dasharray="4 13"/>
<circle cx="244.55" cy="-626.31" r="6.46" fill="#111111"/>
<path d="M115.88,-467.05 L102.81,-464.22 L85.32,-476.54 L85.32,-476.54 L81.34,-482.09 L74.79,-483.96 L69.97,-488.31 L62.86,-489.4 L57.26,-492.63 L50.76,-494.59 L48.03,-495.76 L48.03,-495.76 L48.03,-495.76 L50.06,-493.59 L54.09,-488.13 L59.01,-483.94 L62.44,-477.62 L68.15,-474.55 L72.13,-469.01 L78.68,-467.13 L78.68,-467.13 L96.18,-454.8 L97.91,-441.54 Z" fill="#ffffff" stroke="#111111" stroke-width="2.97" stroke-linejoin="round"/>
<path d="M48.03,-495.76 L-41.82,-559.06" fill="none" stroke="#9a9a9a" stroke-width="3.26" stroke-linecap="round" stroke-dasharray="4 13"/>
<circle cx="-41.82" cy="-559.06" r="6.46" fill="#111111"/>
<path d="M-170.49,-399.8 L-183.55,-396.97 L-201.05,-409.3 L-201.05,-409.3 L-205.03,-414.84 L-211.58,-416.72 L-216.4,-421.06 L-223.5,-422.16 L-229.11,-425.38 L-235.6,-427.35 L-238.33,-428.52 L-238.33,-428.52 L-238.33,-428.52 L-236.31,-426.34 L-232.27,-420.89 L-227.35,-416.69 L-223.93,-410.37 L-218.21,-407.3 L-214.24,-401.76 L-207.69,-399.88 L-207.69,-399.88 L-190.19,-387.55 L-188.46,-374.3 Z" fill="#ffffff" stroke="#111111" stroke-width="2.97" stroke-linejoin="round"/>
<path d="M-238.33,-428.52 L-328.18,-491.82" fill="none" stroke="#9a9a9a" stroke-width="3.26" stroke-linecap="round" stroke-dasharray="4 13"/>
<circle cx="-328.18" cy="-491.82" r="6.46" fill="#111111"/>
<path d="M-456.85,-332.56 L-469.92,-329.72 L-487.42,-342.05 L-487.42,-342.05 L-491.39,-347.59 L-497.95,-349.47 L-502.76,-353.81 L-509.87,-354.91 L-515.47,-358.13 L-521.97,-360.1 L-524.7,-361.27 L-524.7,-361.27 L-524.7,-361.27 L-522.68,-359.09 L-518.64,-353.64 L-513.72,-349.44 L-510.29,-343.12 L-504.58,-340.05 L-500.61,-334.51 L-494.05,-332.63 L-494.05,-332.63 L-476.55,-320.31 L-474.82,-307.05 Z" fill="#ffffff" stroke="#111111" stroke-width="2.97" stroke-linejoin="round"/>
<path d="M-524.7,-361.27 L-614.55,-424.57" fill="none" stroke="#9a9a9a" stroke-width="3.26" stroke-linecap="round" stroke-dasharray="4 13"/>
<circle cx="-614.55" cy="-424.57" r="6.46" fill="#111111"/>
<path d="M-743.22,-265.31 L-756.29,-262.48 L-773.78,-274.8 L-773.78,-274.8 L-777.76,-280.34 L-784.31,-282.22 L-789.13,-286.57 L-796.23,-287.66 L-801.84,-290.89 L-808.33,-292.85 L-811.06,-294.02 L-811.06,-294.02 L-811.06,-294.02 L-809.04,-291.85 L-805.01,-286.39 L-800.08,-282.2 L-796.66,-275.88 L-790.95,-272.8 L-786.97,-267.26 L-780.42,-265.39 L-780.42,-265.39 L-762.92,-253.06 L-761.19,-239.8 Z" fill="#ffffff" stroke="#111111" stroke-width="2.97" stroke-linejoin="round"/>
<path d="M-811.06,-294.02 L-900.91,-357.32" fill="none" stroke="#9a9a9a" stroke-width="3.26" stroke-linecap="round" stroke-dasharray="4 13"/>
<circle cx="-900.91" cy="-357.32" r="6.46" fill="#111111"/>
<path d="M490.58,178.54 L477.51,181.37 L460.02,169.04 L460.02,169.04 L456.04,163.5 L449.49,161.62 L444.67,157.28 L437.56,156.18 L431.96,152.96 L425.46,150.99 L422.73,149.82 L422.73,149.82 L422.73,149.82 L424.76,152 L428.79,157.45 L433.71,161.65 L437.14,167.97 L442.85,171.04 L446.83,176.58 L453.38,178.46 L453.38,178.46 L470.88,190.78 L472.61,204.04 Z" fill="#ffffff" stroke="#111111" stroke-width="2.97" stroke-linejoin="round"/>
<path d="M422.73,149.82 L332.88,86.52" fill="none" stroke="#9a9a9a" stroke-width="3.26" stroke-linecap="round" stroke-dasharray="4 13"/>
<circle cx="332.88" cy="86.52" r="6.46" fill="#111111"/>
<path d="M-27.3,300.15 L-40.37,302.98 L-57.87,290.66 L-57.87,290.66 L-61.84,285.12 L-68.4,283.24 L-73.21,278.89 L-80.32,277.8 L-85.93,274.57 L-92.42,272.61 L-95.15,271.44 L-95.15,271.44 L-95.15,271.44 L-93.13,273.61 L-89.09,279.07 L-84.17,283.26 L-80.74,289.58 L-75.03,292.66 L-71.06,298.2 L-64.5,300.07 L-64.5,300.07 L-47.01,312.4 L-45.27,325.66 Z" fill="#ffffff" stroke="#111111" stroke-width="2.97" stroke-linejoin="round"/>
<path d="M-95.15,271.44 L-185,208.14" fill="none" stroke="#9a9a9a" stroke-width="3.26" stroke-linecap="round" stroke-dasharray="4 13"/>
<circle cx="-185" cy="208.14" r="6.46" fill="#111111"/>
<path d="M-545.19,421.77 L-558.25,424.6 L-575.75,412.27 L-575.75,412.27 L-579.73,406.73 L-586.28,404.85 L-591.1,400.51 L-598.2,399.41 L-603.81,396.19 L-610.3,394.22 L-613.03,393.05 L-613.03,393.05 L-613.03,393.05 L-611.01,395.23 L-606.97,400.68 L-602.05,404.88 L-598.63,411.2 L-592.92,414.27 L-588.94,419.81 L-582.39,421.69 L-582.39,421.69 L-564.89,434.01 L-563.16,447.27 Z" fill="#ffffff" stroke="#111111" stroke-width="2.97" stroke-linejoin="round"/>
<path d="M-613.03,393.05 L-702.88,329.75" fill="none" stroke="#9a9a9a" stroke-width="3.26" stroke-linecap="round" stroke-dasharray="4 13"/>
<circle cx="-702.88" cy="329.75" r="6.46" fill="#111111"/>
<path d="M-901.68,-728.53 L-897.97,-725.92 M-897.97,-725.92 L-897.97,-721.13 M-1071.2,-688.73 L-1067.49,-686.11 M-901.68,-728.53 L-1071.2,-688.73 M-897.97,-725.92 L-1067.49,-686.11 M-897.97,-721.13 L-1062.39,-682.52 M-904.91,-739.51 L-828.43,-685.63 M-828.43,-685.63 L-828.43,-685.36 M-914.17,-737.33 L-837.69,-683.45 M-914.17,-733.75 L-905.5,-727.64 M-897.97,-722.33 L-884.5,-712.84 M-876.97,-707.53 L-841.51,-682.55 M-914.17,-737.33 L-914.17,-733.75 M-904.91,-739.51 L-914.17,-737.33 M-828.43,-685.63 L-837.69,-683.45 M-1083.69,-697.53 L-1007.21,-643.64 M-1092.95,-695.35 L-1016.47,-641.47 M-1016.47,-641.47 L-1016.47,-637.88 M-1092.95,-691.76 L-1016.47,-637.88 M-1092.95,-695.35 L-1092.95,-691.76 M-1083.69,-697.53 L-1092.95,-695.35 M-1007.21,-643.64 L-1016.47,-641.47 M-1016.18,-637.95 L-1016.47,-637.88 M-880.68,-713.74 L-876.97,-711.12 M-876.97,-711.12 L-876.97,-706.34 M-1050.19,-673.93 L-1046.48,-671.32 M-880.68,-713.74 L-1050.19,-673.93 M-876.97,-711.12 L-1046.48,-671.32 M-876.97,-706.34 L-1041.39,-667.73 M-828.71,-685.56 L-823.37,-681.79 M-823.37,-681.79 L-823.37,-677.01 M-1016.18,-641.54 L-1010.84,-637.77 M-1010.84,-637.77 L-1010.84,-632.99 M-1016.18,-636.75 L-1010.84,-632.99 M-1016.18,-641.54 L-1016.18,-636.75 M-828.71,-685.56 L-1016.18,-641.54 M-823.37,-681.79 L-1010.84,-637.77 M-823.37,-677.01 L-1010.84,-632.99" fill="none" stroke="#111111" stroke-width="4.08" stroke-linecap="round" stroke-linejoin="round"/>
<path d="M-466.32,-651.52 L-462.61,-648.91 M-462.61,-639.31 L-462.61,-648.91 M-703.59,-593.19 L-702.66,-592.54 M-702.66,-582.94 L-702.66,-592.54 M-703.59,-583.59 L-702.66,-582.94 M-466.32,-651.52 L-703.59,-595.8 M-462.61,-639.31 L-702.66,-582.94 M-462.61,-648.91 L-702.66,-592.54 M-450.43,-610.72 L-450.43,-807.74 M-466.32,-609.6 L-466.32,-638.44 M-466.32,-651.52 L-466.32,-692.78 M-466.32,-705.86 L-466.32,-804 M-463.54,-607.64 L-463.54,-639.09 M-463.54,-649.56 L-463.54,-693.43 M-463.54,-703.9 L-463.54,-804.66 M-466.32,-609.6 L-463.54,-607.64 M-450.43,-610.72 L-463.54,-607.64 M-703.59,-551.27 L-703.59,-748.29 M-719.48,-550.15 L-719.48,-748.04 M-719.48,-748.04 L-716.7,-746.08 M-716.7,-548.19 L-716.7,-746.08 M-719.48,-550.15 L-716.7,-548.19 M-719.08,-748.13 L-719.48,-748.04 M-703.59,-551.27 L-716.7,-548.19 M-716.3,-746.17 L-716.7,-746.08 M-466.32,-705.86 L-462.61,-703.25 M-462.61,-693.65 L-462.61,-703.25 M-703.59,-647.53 L-702.66,-646.88 M-702.66,-637.28 L-702.66,-646.88 M-703.59,-637.93 L-702.66,-637.28 M-466.32,-705.86 L-703.59,-650.14 M-462.61,-693.65 L-702.66,-637.28 M-462.61,-703.25 L-702.66,-646.88 M-453.61,-824.31 L-449.9,-821.69 M-449.9,-807.86 L-449.9,-821.69 M-719.08,-748.13 L-719.08,-761.96 M-719.08,-761.96 L-715.37,-759.35 M-715.37,-745.52 L-715.37,-759.35 M-719.08,-748.13 L-715.37,-745.52 M-453.61,-824.31 L-719.08,-761.96 M-449.9,-807.86 L-715.37,-745.52 M-449.9,-821.69 L-715.37,-759.35" fill="none" stroke="#111111" stroke-width="4.08" stroke-linecap="round" stroke-linejoin="round"/>
<path d="M-793.42,-686.25 L-749.42,-686.25" fill="none" stroke="#111111" stroke-width="5.56" stroke-linecap="round"/>
<path d="M-749.42,-686.25 L-766.56,-696.56" fill="none" stroke="#111111" stroke-width="5.56" stroke-linecap="round"/>
<path d="M-749.42,-686.25 L-766.56,-675.94" fill="none" stroke="#111111" stroke-width="5.56" stroke-linecap="round"/>
</svg>
