<?xml version="1.0" encoding="UTF-8"?>
<svg xmlns="http://www.w3.org/2000/svg" viewBox="0 150 3450 3024.1" width="2400">
  <title>Loftseng - bakveggen, spikerslagsoner</title>
  <defs>
    <marker id="aE" markerWidth="13" markerHeight="10" refX="12" refY="4.5"
      orient="auto"><path d="M0,0 L12,4.5 L0,9 z" fill="#000"/></marker>
    <marker id="aS" markerWidth="13" markerHeight="10" refX="1" refY="4.5"
      orient="auto"><path d="M12,0 L0,4.5 L12,9 z" fill="#000"/></marker>
    <pattern id="hatch" width="14" height="14"
      patternUnits="userSpaceOnUse" patternTransform="rotate(45)">
      <rect width="14" height="14"
        fill="#dcdcdc"/>
      <line x1="0" y1="0" x2="0" y2="14" stroke="#000"
        stroke-width="1.7"/></pattern>
  </defs>
  <style>
    svg  { background:#fff; }
    text { font-family:Helvetica,Arial,sans-serif; fill:#000;
           font-size:22px; }
    .ttl { font-size:50px; font-weight:bold; }
    .sub { font-size:26px; }
    .pt  { font-size:31px; font-weight:bold; }
    .big { font-size:27px; font-weight:bold; }
    .sml { font-size:22px; }
    .tiny{ font-size:19px; }
    .tinyh{ font-size:19px; paint-order:stroke; stroke:#fff;
           stroke-width:6px; }
    .smh { font-size:22px; paint-order:stroke; stroke:#fff;
           stroke-width:6px; }
    .dm  { font-size:23px; }
    .dmh { font-size:23px; paint-order:stroke; stroke:#fff;
           stroke-width:6px; }
    .leg { font-size:26px; font-weight:bold; }
    .jl  { font-size:27px; font-weight:bold; paint-order:stroke;
           stroke:#fff; stroke-width:6px; }
    .wood{ fill:url(#hatch); stroke:#000; stroke-width:2.6; }
    .mate{ fill:#c4c4c4; stroke:#000; stroke-width:3; }
    .brd { fill:#ececec; stroke:#000; stroke-width:2.6; }
    .plain{ fill:#fff; stroke:#000; stroke-width:2.6; }
    .gho { fill:none; stroke:#000; stroke-width:1.7;
           stroke-dasharray:10.9 6.8; }
    .ctr { fill:none; stroke:#000; stroke-width:1.1;
           stroke-dasharray:9 3
           1.5 3; }
    .dot { fill:none; stroke:#000; stroke-width:1.8;
           stroke-dasharray:0.6 4.5;
           stroke-linecap:round; }
    .dim { fill:none; stroke:#000; stroke-width:1.4; }
    .ext { fill:none; stroke:#000; stroke-width:0.9; }
    .ldr { fill:none; stroke:#000; stroke-width:1.5; }
    .brk { fill:none; stroke:#000; stroke-width:2; }
    .cut { fill:none; stroke:#000; stroke-width:2.6; }
    .scr { fill:#fff; stroke:#000; stroke-width:1.8; }
    .scrd{ fill:none; stroke:#000; stroke-width:1.8;
           stroke-dasharray:8.8 5.7; }
    .pic { fill:none; stroke:#000; stroke-width:2.6;
           stroke-linecap:round; stroke-linejoin:round; }
    .picf{ fill:#fff; stroke:#000; stroke-width:2.6;
           stroke-linecap:round; stroke-linejoin:round; }
    .pic2{ fill:none; stroke:#000; stroke-width:1.6;
           stroke-linecap:round; stroke-linejoin:round; }
    .fld { fill:none; stroke:#000; stroke-width:1.6; }
    .era { fill:none; stroke:#fff; stroke-width:2.6; }
  </style>
  <style>
    .zone, .zonekey { fill:url(#hatch); stroke:#000;
           stroke-width:2.6; }
    .wallf{ fill:none; stroke:#000; stroke-width:5; }
    .flr  { fill:none; stroke:#000; stroke-width:5; }
    .face { fill:none; stroke:#000; stroke-width:1.7; }
    .scrp { fill:#000; stroke:none; }
    .scro { fill:#fff; stroke:#000; stroke-width:2.2; }
  </style>
  <rect x="0" y="150" width="3450" height="3024.1" fill="#ffffff"/>
  <text x="120" y="250" class="ttl" text-anchor="start">BAKVEGGEN — SPIKERSLAGSONER, OPPRISS (X–Z)</text>
  <text x="120" y="310" class="sub" text-anchor="start">Veggen sengen skrus fast i, sett som oppriss · X langs veggen (0 = venstre endevegg, 1990 = høyre) · Z opp fra FERDIG GULV · alle mål i mm · legg spikerslagene FØR veggen lukkes</text>
  <text x="2560" y="250" class="leg" text-anchor="start">TEGNFORKLARING</text>
  <rect x="2560" y="272.9" width="90" height="24.2" class="zonekey"/>
  <text x="2672" y="291.6" class="sml" text-anchor="start">Sone som skal ha spikerslag — hele feltet, ikke bare en linje</text>
  <rect x="2560" y="307" width="90" height="24.2" class="plain"/>
  <text x="2672" y="325.7" class="sml" text-anchor="start">Bar vegg — ingenting av sengen ligger inntil</text>
  <line x1="2560" y1="353.2" x2="2650" y2="353.2" class="ctr"/>
  <text x="2672" y="359.8" class="sml" text-anchor="start">Høyderiss over ferdig gulv</text>
  <circle cx="2605" cy="387.3" r="12" class="scro"/>
  <circle cx="2605" cy="387.3" r="4.5" class="scrp"/>
  <text x="2672" y="393.9" class="sml" text-anchor="start">Veggfeste (J14 / J12-V) — skrue inn i veggen</text>
  <rect x="470" y="405.2" width="1990" height="1650" class="plain"/>
  <line x1="470" y1="365.2" x2="470" y2="2055.2" class="wallf"/>
  <line x1="470" y1="365.2" x2="436" y2="331.2" class="ext"/>
  <line x1="470" y1="427.2" x2="436" y2="393.2" class="ext"/>
  <line x1="470" y1="489.2" x2="436" y2="455.2" class="ext"/>
  <line x1="470" y1="551.2" x2="436" y2="517.2" class="ext"/>
  <line x1="470" y1="613.2" x2="436" y2="579.2" class="ext"/>
  <line x1="470" y1="675.2" x2="436" y2="641.2" class="ext"/>
  <line x1="470" y1="737.2" x2="436" y2="703.2" class="ext"/>
  <line x1="470" y1="799.2" x2="436" y2="765.2" class="ext"/>
  <line x1="470" y1="861.2" x2="436" y2="827.2" class="ext"/>
  <line x1="470" y1="923.2" x2="436" y2="889.2" class="ext"/>
  <line x1="470" y1="985.2" x2="436" y2="951.2" class="ext"/>
  <line x1="470" y1="1047.2" x2="436" y2="1013.2" class="ext"/>
  <line x1="470" y1="1109.2" x2="436" y2="1075.2" class="ext"/>
  <line x1="470" y1="1171.2" x2="436" y2="1137.2" class="ext"/>
  <line x1="470" y1="1233.2" x2="436" y2="1199.2" class="ext"/>
  <line x1="470" y1="1295.2" x2="436" y2="1261.2" class="ext"/>
  <line x1="470" y1="1357.2" x2="436" y2="1323.2" class="ext"/>
  <line x1="470" y1="1419.2" x2="436" y2="1385.2" class="ext"/>
  <line x1="470" y1="1481.2" x2="436" y2="1447.2" class="ext"/>
  <line x1="470" y1="1543.2" x2="436" y2="1509.2" class="ext"/>
  <line x1="470" y1="1605.2" x2="436" y2="1571.2" class="ext"/>
  <line x1="470" y1="1667.2" x2="436" y2="1633.2" class="ext"/>
  <line x1="470" y1="1729.2" x2="436" y2="1695.2" class="ext"/>
  <line x1="470" y1="1791.2" x2="436" y2="1757.2" class="ext"/>
  <line x1="470" y1="1853.2" x2="436" y2="1819.2" class="ext"/>
  <line x1="470" y1="1915.2" x2="436" y2="1881.2" class="ext"/>
  <line x1="470" y1="1977.2" x2="436" y2="1943.2" class="ext"/>
  <line x1="470" y1="2039.2" x2="436" y2="2005.2" class="ext"/>
  <line x1="2460" y1="365.2" x2="2460" y2="2055.2" class="wallf"/>
  <line x1="2460" y1="365.2" x2="2494" y2="331.2" class="ext"/>
  <line x1="2460" y1="427.2" x2="2494" y2="393.2" class="ext"/>
  <line x1="2460" y1="489.2" x2="2494" y2="455.2" class="ext"/>
  <line x1="2460" y1="551.2" x2="2494" y2="517.2" class="ext"/>
  <line x1="2460" y1="613.2" x2="2494" y2="579.2" class="ext"/>
  <line x1="2460" y1="675.2" x2="2494" y2="641.2" class="ext"/>
  <line x1="2460" y1="737.2" x2="2494" y2="703.2" class="ext"/>
  <line x1="2460" y1="799.2" x2="2494" y2="765.2" class="ext"/>
  <line x1="2460" y1="861.2" x2="2494" y2="827.2" class="ext"/>
  <line x1="2460" y1="923.2" x2="2494" y2="889.2" class="ext"/>
  <line x1="2460" y1="985.2" x2="2494" y2="951.2" class="ext"/>
  <line x1="2460" y1="1047.2" x2="2494" y2="1013.2" class="ext"/>
  <line x1="2460" y1="1109.2" x2="2494" y2="1075.2" class="ext"/>
  <line x1="2460" y1="1171.2" x2="2494" y2="1137.2" class="ext"/>
  <line x1="2460" y1="1233.2" x2="2494" y2="1199.2" class="ext"/>
  <line x1="2460" y1="1295.2" x2="2494" y2="1261.2" class="ext"/>
  <line x1="2460" y1="1357.2" x2="2494" y2="1323.2" class="ext"/>
  <line x1="2460" y1="1419.2" x2="2494" y2="1385.2" class="ext"/>
  <line x1="2460" y1="1481.2" x2="2494" y2="1447.2" class="ext"/>
  <line x1="2460" y1="1543.2" x2="2494" y2="1509.2" class="ext"/>
  <line x1="2460" y1="1605.2" x2="2494" y2="1571.2" class="ext"/>
  <line x1="2460" y1="1667.2" x2="2494" y2="1633.2" class="ext"/>
  <line x1="2460" y1="1729.2" x2="2494" y2="1695.2" class="ext"/>
  <line x1="2460" y1="1791.2" x2="2494" y2="1757.2" class="ext"/>
  <line x1="2460" y1="1853.2" x2="2494" y2="1819.2" class="ext"/>
  <line x1="2460" y1="1915.2" x2="2494" y2="1881.2" class="ext"/>
  <line x1="2460" y1="1977.2" x2="2494" y2="1943.2" class="ext"/>
  <line x1="2460" y1="2039.2" x2="2494" y2="2005.2" class="ext"/>
  <line x1="410" y1="2055.2" x2="2520" y2="2055.2" class="flr"/>
  <line x1="410" y1="2055.2" x2="376" y2="2089.2" class="ext"/>
  <line x1="472" y1="2055.2" x2="438" y2="2089.2" class="ext"/>
  <line x1="534" y1="2055.2" x2="500" y2="2089.2" class="ext"/>
  <line x1="596" y1="2055.2" x2="562" y2="2089.2" class="ext"/>
  <line x1="658" y1="2055.2" x2="624" y2="2089.2" class="ext"/>
  <line x1="720" y1="2055.2" x2="686" y2="2089.2" class="ext"/>
  <line x1="782" y1="2055.2" x2="748" y2="2089.2" class="ext"/>
  <line x1="844" y1="2055.2" x2="810" y2="2089.2" class="ext"/>
  <line x1="906" y1="2055.2" x2="872" y2="2089.2" class="ext"/>
  <line x1="968" y1="2055.2" x2="934" y2="2089.2" class="ext"/>
  <line x1="1030" y1="2055.2" x2="996" y2="2089.2" class="ext"/>
  <line x1="1092" y1="2055.2" x2="1058" y2="2089.2" class="ext"/>
  <line x1="1154" y1="2055.2" x2="1120" y2="2089.2" class="ext"/>
  <line x1="1216" y1="2055.2" x2="1182" y2="2089.2" class="ext"/>
  <line x1="1278" y1="2055.2" x2="1244" y2="2089.2" class="ext"/>
  <line x1="1340" y1="2055.2" x2="1306" y2="2089.2" class="ext"/>
  <line x1="1402" y1="2055.2" x2="1368" y2="2089.2" class="ext"/>
  <line x1="1464" y1="2055.2" x2="1430" y2="2089.2" class="ext"/>
  <line x1="1526" y1="2055.2" x2="1492" y2="2089.2" class="ext"/>
  <line x1="1588" y1="2055.2" x2="1554" y2="2089.2" class="ext"/>
  <line x1="1650" y1="2055.2" x2="1616" y2="2089.2" class="ext"/>
  <line x1="1712" y1="2055.2" x2="1678" y2="2089.2" class="ext"/>
  <line x1="1774" y1="2055.2" x2="1740" y2="2089.2" class="ext"/>
  <line x1="1836" y1="2055.2" x2="1802" y2="2089.2" class="ext"/>
  <line x1="1898" y1="2055.2" x2="1864" y2="2089.2" class="ext"/>
  <line x1="1960" y1="2055.2" x2="1926" y2="2089.2" class="ext"/>
  <line x1="2022" y1="2055.2" x2="1988" y2="2089.2" class="ext"/>
  <line x1="2084" y1="2055.2" x2="2050" y2="2089.2" class="ext"/>
  <line x1="2146" y1="2055.2" x2="2112" y2="2089.2" class="ext"/>
  <line x1="2208" y1="2055.2" x2="2174" y2="2089.2" class="ext"/>
  <line x1="2270" y1="2055.2" x2="2236" y2="2089.2" class="ext"/>
  <line x1="2332" y1="2055.2" x2="2298" y2="2089.2" class="ext"/>
  <line x1="2394" y1="2055.2" x2="2360" y2="2089.2" class="ext"/>
  <line x1="2456" y1="2055.2" x2="2422" y2="2089.2" class="ext"/>
  <line x1="2518" y1="2055.2" x2="2484" y2="2089.2" class="ext"/>
  <rect x="470" y="653.2" width="98" height="1402" class="zone"/>
  <rect x="2362" y="653.2" width="98" height="1402" class="zone"/>
  <rect x="568" y="1758.2" width="1794" height="68" class="zone"/>
  <rect x="568" y="1373.2" width="1794" height="68" class="zone"/>
  <rect x="473" y="555.2" width="1984" height="98" class="zone"/>
  <circle cx="519" cy="803.2" r="26" class="picf"/>
  <text x="519" y="814.36" class="pt" text-anchor="middle">1</text>
  <circle cx="2411" cy="803.2" r="26" class="picf"/>
  <text x="2411" y="814.36" class="pt" text-anchor="middle">1</text>
  <circle cx="1465" cy="1792.2" r="26" class="picf"/>
  <text x="1465" y="1803.36" class="pt" text-anchor="middle">2</text>
  <circle cx="1465" cy="1407.2" r="26" class="picf"/>
  <text x="1465" y="1418.36" class="pt" text-anchor="middle">3</text>
  <circle cx="1465" cy="604.2" r="26" class="picf"/>
  <text x="1465" y="615.36" class="pt" text-anchor="middle">4</text>
  <line x1="350" y1="1055.2" x2="2580" y2="1055.2" class="ctr"/>
  <text x="620" y="1044.2" class="smh" text-anchor="start">HØYDERISS 1000 OVER FERDIG GULV — 0 I RISS-NOTASJONEN (MINUS ER UNDER, PLUSS ER OVER)</text>
  <circle cx="638.333" cy="604.2" r="12" class="scro"/>
  <circle cx="638.333" cy="604.2" r="4.5" class="scrp"/>
  <circle cx="969" cy="604.2" r="12" class="scro"/>
  <circle cx="969" cy="604.2" r="4.5" class="scrp"/>
  <circle cx="1299.667" cy="604.2" r="12" class="scro"/>
  <circle cx="1299.667" cy="604.2" r="4.5" class="scrp"/>
  <circle cx="1630.333" cy="604.2" r="12" class="scro"/>
  <circle cx="1630.333" cy="604.2" r="4.5" class="scrp"/>
  <circle cx="1961" cy="604.2" r="12" class="scro"/>
  <circle cx="1961" cy="604.2" r="4.5" class="scrp"/>
  <circle cx="2291.667" cy="604.2" r="12" class="scro"/>
  <circle cx="2291.667" cy="604.2" r="4.5" class="scrp"/>
  <circle cx="867" cy="1407.2" r="12" class="scro"/>
  <circle cx="867" cy="1407.2" r="4.5" class="scrp"/>
  <circle cx="1465" cy="1407.2" r="12" class="scro"/>
  <circle cx="1465" cy="1407.2" r="4.5" class="scrp"/>
  <circle cx="2063" cy="1407.2" r="12" class="scro"/>
  <circle cx="2063" cy="1407.2" r="4.5" class="scrp"/>
  <text x="2436" y="511.86" class="smh" text-anchor="end">6 × veggfeste (J14) — Z 1451, sone 4</text>
  <line x1="2291.667" y1="604.2" x2="2291.667" y2="522.26" class="ext"/>
  <text x="2196" y="1329.86" class="smh" text-anchor="end">3 × veggfeste (J12-V) — Z 648, sone 3</text>
  <line x1="2063" y1="1407.2" x2="2063" y2="1340.26" class="ext"/>
  <text x="592" y="678.5" class="smh" text-anchor="start">Hjørnestolpe, venstre — sone 1</text>
  <text x="2338" y="678.5" class="smh" text-anchor="end">Hjørnestolpe, høyre — sone 1</text>
  <text x="588" y="1714.86" class="smh" text-anchor="start">Benkevange, bak (gjennomgående) — 229–297 over gulv  ·  -771..-703 under risset</text>
  <text x="588" y="1329.86" class="smh" text-anchor="start">Bordbærelekt, bak — 614–682 over gulv  ·  -386..-318 under risset</text>
  <text x="493" y="511.86" class="smh" text-anchor="start">Sidevange, øvre — 1402–1500 over gulv  ·  +402..+500 over risset</text>
  <line x1="360" y1="2055.2" x2="360" y2="1826.2" class="dim" marker-start="url(#aS)" marker-end="url(#aE)"/>
  <text x="372.65" y="1948.75" class="dmh" text-anchor="middle">229</text>
  <line x1="470" y1="1826.2" x2="344" y2="1826.2" class="ext"/>
  <line x1="360" y1="1826.2" x2="360" y2="1758.2" class="dim" marker-start="url(#aS)" marker-end="url(#aE)"/>
  <text x="372.65" y="1800.25" class="dmh" text-anchor="middle">68</text>
  <line x1="470" y1="1758.2" x2="344" y2="1758.2" class="ext"/>
  <line x1="360" y1="1758.2" x2="360" y2="1441.2" class="dim" marker-start="url(#aS)" marker-end="url(#aE)"/>
  <text x="372.65" y="1607.75" class="dmh" text-anchor="middle">317</text>
  <line x1="470" y1="1441.2" x2="344" y2="1441.2" class="ext"/>
  <line x1="360" y1="1441.2" x2="360" y2="1373.2" class="dim" marker-start="url(#aS)" marker-end="url(#aE)"/>
  <text x="372.65" y="1415.25" class="dmh" text-anchor="middle">68</text>
  <line x1="470" y1="1373.2" x2="344" y2="1373.2" class="ext"/>
  <line x1="360" y1="1373.2" x2="360" y2="653.2" class="dim" marker-start="url(#aS)" marker-end="url(#aE)"/>
  <text x="372.65" y="1021.25" class="dmh" text-anchor="middle">720</text>
  <line x1="470" y1="653.2" x2="344" y2="653.2" class="ext"/>
  <line x1="360" y1="653.2" x2="360" y2="555.2" class="dim" marker-start="url(#aS)" marker-end="url(#aE)"/>
  <text x="372.65" y="612.25" class="dmh" text-anchor="middle">98</text>
  <line x1="470" y1="555.2" x2="344" y2="555.2" class="ext"/>
  <line x1="470" y1="2055.2" x2="344" y2="2055.2" class="ext"/>
  <line x1="2484" y1="555.2" x2="2560" y2="555.2" class="ext"/>
  <text x="2610" y="563.12" class="sml" text-anchor="start">1500   (+500 fra risset)   ok sidevange, øvre — sone 4 slutter</text>
  <line x1="2484" y1="604.2" x2="2560" y2="604.2" class="ext"/>
  <text x="2610" y="612.12" class="sml" text-anchor="start">1451   (+451 fra risset)   veggfeste J14</text>
  <line x1="2484" y1="653.2" x2="2560" y2="653.2" class="ext"/>
  <text x="2610" y="661.12" class="sml" text-anchor="start">1402   (+402 fra risset)   ok hjørnestolpe, bak (veggside) — sone 1 slutter</text>
  <line x1="2484" y1="653.2" x2="2560" y2="653.2" class="ext"/>
  <polyline points="2560,653.2 2586,653.2 2612,684.88" class="ext"/>
  <text x="2610" y="692.36" class="sml" text-anchor="start">1402   (+402 fra risset)   uk sidevange, øvre — sone 4 begynner</text>
  <line x1="2484" y1="1055.2" x2="2560" y2="1055.2" class="ext"/>
  <text x="2610" y="1063.12" class="sml" text-anchor="start">1000   (0 fra risset)   høyderiss (laser rundt hele nisja)</text>
  <line x1="2484" y1="1373.2" x2="2560" y2="1373.2" class="ext"/>
  <text x="2610" y="1381.12" class="sml" text-anchor="start">682   (-318 fra risset)   ok bordbærelekt, bak — sone 3 slutter</text>
  <line x1="2484" y1="1407.2" x2="2560" y2="1407.2" class="ext"/>
  <text x="2610" y="1415.12" class="sml" text-anchor="start">648   (-352 fra risset)   veggfeste J12-V</text>
  <line x1="2484" y1="1441.2" x2="2560" y2="1441.2" class="ext"/>
  <text x="2610" y="1449.12" class="sml" text-anchor="start">614   (-386 fra risset)   uk bordbærelekt, bak — sone 3 begynner</text>
  <line x1="2484" y1="1758.2" x2="2560" y2="1758.2" class="ext"/>
  <text x="2610" y="1766.12" class="sml" text-anchor="start">297   (-703 fra risset)   ok benkevange, bak (gjennomgående) — sone 2 slutter</text>
  <line x1="2484" y1="1826.2" x2="2560" y2="1826.2" class="ext"/>
  <text x="2610" y="1834.12" class="sml" text-anchor="start">229   (-771 fra risset)   uk benkevange, bak (gjennomgående) — sone 2 begynner</text>
  <line x1="2484" y1="2055.2" x2="2560" y2="2055.2" class="ext"/>
  <text x="2610" y="2063.12" class="sml" text-anchor="start">0   (-1000 fra risset)   ferdig gulv — alle mål herfra</text>
  <line x1="470" y1="2175.2" x2="568" y2="2175.2" class="dim" marker-start="url(#aS)" marker-end="url(#aE)"/>
  <text x="519" y="2198.2" class="dmh" text-anchor="middle">98</text>
  <line x1="2362" y1="2175.2" x2="2460" y2="2175.2" class="dim" marker-start="url(#aS)" marker-end="url(#aE)"/>
  <text x="2411" y="2198.2" class="dmh" text-anchor="middle">98</text>
  <text x="2560" y="2183.48" class="sml" text-anchor="start">sone 1</text>
  <line x1="568" y1="2270.2" x2="2362" y2="2270.2" class="dim" marker-start="url(#aS)" marker-end="url(#aE)"/>
  <text x="1465" y="2293.2" class="dmh" text-anchor="middle">1794</text>
  <text x="2560" y="2278.48" class="sml" text-anchor="start">sone 2 og 3</text>
  <line x1="473" y1="2365.2" x2="2457" y2="2365.2" class="dim" marker-start="url(#aS)" marker-end="url(#aE)"/>
  <text x="1465" y="2388.2" class="dmh" text-anchor="middle">1984</text>
  <text x="2560" y="2373.48" class="sml" text-anchor="start">sone 4</text>
  <line x1="470" y1="2460.2" x2="2460" y2="2460.2" class="dim" marker-start="url(#aS)" marker-end="url(#aE)"/>
  <text x="1465" y="2483.2" class="dmh" text-anchor="middle">1990  nisjas bredde, vegg til vegg</text>
  <text x="120" y="2550.2" class="leg" text-anchor="start">LEGG SPIKERSLAG MENS VEGGEN ER ÅPEN</text>
  <text x="120" y="2589.2" class="sml" text-anchor="start">Sengen presser på bakveggen i 4 bånd, ikke overalt. Her er båndene. Legger du spikerslag i dem før veggen lukkes, kan du feste</text>
  <text x="120" y="2618.9" class="sml" text-anchor="start">sengen hvor som helst i sonen. Etterpå kommer du ikke til.</text>
  <text x="120" y="2648.6" class="sml" text-anchor="start">Sone 1: 0–1402 over ferdig gulv = -1000..+402 krysser risset — Hjørnestolpe, bak (veggside) (2 stk., ett felt i hvert hjørne)</text>
  <text x="120" y="2678.3" class="sml" text-anchor="start">Sone 2: 229–297 over ferdig gulv = -771..-703 under risset — Benkevange, bak (gjennomgående)</text>
  <text x="120" y="2708" class="sml" text-anchor="start">Sone 3: 614–682 over ferdig gulv = -386..-318 under risset — Bordbærelekt, bak</text>
  <text x="120" y="2737.7" class="sml" text-anchor="start">Sone 4: 1402–1500 over ferdig gulv = +402..+500 over risset — Sidevange, øvre</text>
  <text x="120" y="2787.2" class="leg" text-anchor="start">HØYDERISSET</text>
  <text x="120" y="2826.2" class="sml" text-anchor="start">Slå et vannrett riss rundt hele nisja med linjelaser, 1000 mm over ferdig gulv. Alle høyder på dette arket er målt fra ferdig gulv,</text>
  <text x="120" y="2855.9" class="sml" text-anchor="start">og på veggen måler du dem ned eller opp fra risset — aldri fra gulvet.</text>
  <text x="120" y="2885.6" class="sml" text-anchor="start">Derfor står hver høyde to ganger: over ferdig gulv, og i parentes det samme tallet minus 1000 — minus er under laserlinja, pluss er</text>
  <text x="120" y="2915.3" class="sml" text-anchor="start">over. Gulvet er skjevt og risset er ikke, så det er parentesen du setter sonene etter.</text>
  <text x="120" y="2945" class="sml" text-anchor="start">Risset ligger på bar vegg mellom sone-toppen 682 og sone-bunnen 1402, så det er synlig helt til sengen står inntil. Det er en assert</text>
  <text x="120" y="2974.7" class="sml" text-anchor="start">i modellen.</text>
  <text x="120" y="3004.4" class="sml" text-anchor="start">Gulv-kolonnen er fra ferdig gulv. Legges gulvet etterpå, må påforingshøyden legges til — i begge kolonner, for risset slås fra</text>
  <text x="120" y="3034.1" class="sml" text-anchor="start">ferdig gulv det også.</text>
  <text x="1800" y="2550.2" class="leg" text-anchor="start">HJØRNENE</text>
  <text x="1800" y="2589.2" class="sml" text-anchor="start">De to feltene i hjørnene går fra gulvet og opp til 1402, og de er 98 mm brede — bredden på den bakre hjørnestolpen. Stolpen står i</text>
  <text x="1800" y="2618.9" class="sml" text-anchor="start">veggplanet uten klaring, mot både endeveggen og bakveggen, så det er i disse to smale feltene hele endekreftene tas.</text>
  <text x="1800" y="2668.4" class="leg" text-anchor="start">VEGGFESTENE</text>
  <text x="1800" y="2707.4" class="sml" text-anchor="start">9 skruer i 2 rader, gjennom sengen og inn i veggen. Ingen brakett, ingen kloss: begge delene ligger flatt mot veggen i hele sin</text>
  <text x="1800" y="2737.1" class="sml" text-anchor="start">lengde. Treffer en skrue verken stender eller spikerslag, er festet verdiløst — det er derfor sonen skal ligge der før platen skrus</text>
  <text x="1800" y="2766.8" class="sml" text-anchor="start">opp.</text>
  <text x="1800" y="2796.5" class="sml" text-anchor="start">J14: 6 stk. i Z 1451 — gjennom sidevange, øvre, sone 4.</text>
  <text x="1800" y="2826.2" class="sml" text-anchor="start">J12-V: 3 stk. i Z 648 — gjennom bordbærelekt, bak, sone 3.</text>
  <text x="1800" y="2855.9" class="sml" text-anchor="start">De andre 2 sonene får ingen skrue. De er anleggsflater: sengen presser mot veggen der, og spikerslaget skal likevel ligge der.</text>
  <text x="1800" y="2905.4" class="leg" text-anchor="start">HVA ARKET IKKE SIER</text>
  <text x="1800" y="2944.4" class="sml" text-anchor="start">Hvor stenderne står. Det vet huset, ikke modellen. Sonene er høydene og breddene sengen trenger tre bak; hvordan du får tre dit —</text>
  <text x="1800" y="2974.1" class="sml" text-anchor="start">spikerslag mellom stendere, gjennomgående lekt eller en hel plate — er veggens sak.</text>
  <text x="120" y="3134.1" class="tiny" text-anchor="start">Alle soner, høyder og bredder er lest ut av generate_loftbed.py (WALL_ZONES) — ingen av dem er skrevet inn her. Generert av tools/render_spikerslag.py; rediger ikke for hånd.</text>
</svg>
