<?xml version="1.0" encoding="UTF-8"?>
<svg xmlns="http://www.w3.org/2000/svg" viewBox="-1100 -520 3110 3200" width="1600">
  <title>Loftseng - kortside / endramme, snitt A-A</title>
  <defs>
    <marker id="aE" markerWidth="13" markerHeight="10" refX="12" refY="4.5" orient="auto">
      <path d="M0,0 L12,4.5 L0,9 z" fill="#000"/>
    </marker>
    <marker id="aS" markerWidth="13" markerHeight="10" refX="1" refY="4.5" orient="auto">
      <path d="M12,0 L0,4.5 L12,9 z" fill="#000"/>
    </marker>
    <pattern id="hatch" width="16" height="16" patternUnits="userSpaceOnUse" patternTransform="rotate(45)">
      <rect width="16" height="16" fill="#dcdcdc"/><line x1="0" y1="0" x2="0" y2="16" stroke="#000" stroke-width="1.8"/>
    </pattern>
    <pattern id="wallh" width="20" height="20" patternUnits="userSpaceOnUse" patternTransform="rotate(45)">
      <rect width="20" height="20" fill="#fff"/><line x1="0" y1="0" x2="0" y2="20" stroke="#000" stroke-width="2.2"/>
    </pattern>
    <pattern id="dots" width="14" height="14" patternUnits="userSpaceOnUse">
      <rect width="14" height="14" fill="#fff"/><circle cx="4" cy="4" r="1.7" fill="#000"/>
    </pattern>
  </defs>
  <style>
    svg  { background:#fff; }
    text { font-family:Helvetica,Arial,sans-serif; fill:#000; font-size:25px; }
    .ttl { font-size:52px; font-weight:bold; }
    .sub { font-size:27px; }
    .lbl { font-size:25px; }
    .sml { font-size:23px; }
    .big { font-size:30px; font-weight:bold; }
    .dm  { font-size:24px; }
    .dmh { font-size:24px; paint-order:stroke; stroke:#fff; stroke-width:6px; }
    .leg { font-size:27px; font-weight:bold; }
    .jl  { font-size:28px; font-weight:bold; paint-order:stroke; stroke:#fff; stroke-width:6px; }
    .wall{ fill:url(#wallh); stroke:#000; stroke-width:1.6; }
    .wallface { stroke:#000; stroke-width:5; }
    .rai { fill:#949494; stroke:#000; stroke-width:3.4; }
    .brd { fill:#ececec; stroke:#000; stroke-width:3; }
    .blk { fill:url(#hatch); stroke:#000; stroke-width:3; }
    .pstb{ fill:#e4e4e4; stroke:#000; stroke-width:1.6; }
    .blkb{ fill:#f4f4f4; stroke:#000; stroke-width:1.6; }
    .pnlb{ fill:none; stroke:#000; stroke-width:3; stroke-dasharray:26 6 5 6; }
    .pnlg{ fill:none; stroke:#000; stroke-width:1.8; stroke-dasharray:13 8; }
    .mat { fill:none; stroke:#000; stroke-width:2.2; stroke-dasharray:18 10; }
    .gho { fill:none; stroke:#000; stroke-width:1.7; stroke-dasharray:11 8; }
    .dim { fill:none; stroke:#000; stroke-width:1.4; }
    .ext { fill:none; stroke:#000; stroke-width:0.9; }
    .ldr { fill:none; stroke:#000; stroke-width:1.5; }
    .grd { stroke:#000; stroke-width:3.5; }
    .scr { fill:#000; stroke:none; }
    .scrl{ fill:none; stroke:#000; stroke-width:1.8; }
    .scrg{ fill:#fff; stroke:#000; stroke-width:3; }
    .stl { fill:#6f6f6f; stroke:#000; stroke-width:2.4; }
    .stll{ fill:none; stroke:#000; stroke-width:9; stroke-linejoin:round; stroke-linecap:round; }
    .legbox { fill:none; stroke:#000; stroke-width:1.6; }
    .notebox{ fill:#fff; stroke:#000; stroke-width:2; }
  </style>

  <text x="-1100" y="-450" class="ttl">KORTSIDE – endrammen, snitt A–A (Y–Z)</text>
  <text x="-1100" y="-402" class="sub">Snitt ved X = 108 gjennom endebjelken i venstre ende · veggen (Y = −48) til venstre, romsiden (Y = 788) til høyre · alle mål i mm</text>
  <text x="-1100" y="-364" class="sub">Dette er tegningen som viser at sengen er ASYMMETRISK: 1065 mot veggen, 1700 mot rommet. Total dybde 836 mm.</text>

  <!-- ============ VEGG ============ -->
  <rect x="-270" y="-90" width="222" height="1860" class="wall"/>
  <text x="-252" y="-30" class="big" text-anchor="start">VEGG</text>
  <text x="-252" y="40" class="sml" text-anchor="start">Y = −48</text>
  <line x1="-48" y1="-90" x2="-48" y2="1770" class="wallface"/>

  <!-- ============ DELER BAK SNITTPLANET ============ -->
  <!-- Hjørnestolpe bak 36x98, Y -48..-12, Z 0..1065 -->
  <rect x="-48" y="635" width="36" height="1065" class="pstb"/>
  <!-- Hjørnestolpe front 36x98, Y 752..788, Z 0..1700 -->
  <rect x="752" y="0" width="36" height="1700" class="pstb"/>
  <!-- Bærekloss J9-F, X 0..48, Y 716..752, Z 138..186 -->
  <rect x="716" y="1514" width="36" height="48" class="blkb"/>

  <!-- ============ DELER I SNITTET ============ -->
  <!-- Bordbærelekt bak 21x95, Y -48..-27, Z 387..482 -->
  <rect x="-48" y="1218" width="21" height="95" class="brd"/>
  <!-- Bærekloss J9-B bak, Y -48..0, Z 150..186 -->
  <rect x="-48" y="1514" width="48" height="36" class="blk"/>
  <!-- Benkevange bak 48x73, Y -48..0, Z 186..259 -->
  <rect x="-48" y="1441" width="48" height="73" class="rai"/>
  <!-- Benkevange front (bit) 48x73, Y 704..752, Z 186..259 -->
  <rect x="704" y="1441" width="48" height="73" class="rai"/>
  <!-- Benkespile 36x98 x 800, Y -48..752, Z 259..295 -->
  <rect x="-48" y="1405" width="800" height="36" class="brd"/>
  <!-- Rungetrinn, ghost (X 835..1155, utenfor snittet) -->
  <rect x="715" y="1441" width="73" height="48" class="gho"/>
  <rect x="715" y="1218" width="73" height="48" class="gho"/>
  <!-- Endebjelke 48x98 x 836, Y -48..788, Z 967..1065 -->
  <rect x="-48" y="635" width="836" height="98" class="rai"/>
  <!-- Bæreklosser J1-B, Y -48..-12 og 752..788, Z 931..967 -->
  <rect x="-48" y="733" width="36" height="36" class="blk"/>
  <rect x="752" y="733" width="36" height="36" class="blk"/>
  <!-- Sidevanger, øvre 48x98, Z 1065..1163 -->
  <rect x="-48" y="537" width="48" height="98" class="rai"/>
  <rect x="704" y="537" width="48" height="98" class="rai"/>
  <!-- Køyespile 36x98 x 800, Z 1163..1199 -->
  <rect x="-48" y="501" width="800" height="36" class="brd"/>
  <!-- Madrass, Z 1199..1339 -->
  <rect x="-48" y="361" width="800" height="140" class="mat"/>
  <!-- Rekkverksbord, front 36x98, Y 716..752 -->
  <rect x="716" y="188" width="36" height="98" class="brd"/>
  <rect x="716" y="15" width="36" height="98" class="brd"/>

  <!-- ============ LØS PLATE, BEGGE STILLINGER (ghost - X 655..1335) ============ -->
  <rect x="-48" y="1423" width="800" height="18" class="pnlb"/>
  <rect x="0" y="1441" width="715" height="73" class="pnlg"/>
  <rect x="-48" y="1200" width="800" height="18" class="pnlg"/>
  <rect x="0" y="1218" width="715" height="73" class="pnlg"/>

  <!-- ============ GULV ============ -->
  <line x1="-300" y1="1700" x2="900" y2="1700" class="grd"/>
  <line x1="-280" y1="1700" x2="-304" y2="1724" class="ext"/>
  <line x1="-224" y1="1700" x2="-248" y2="1724" class="ext"/>
  <line x1="-168" y1="1700" x2="-192" y2="1724" class="ext"/>
  <line x1="-112" y1="1700" x2="-136" y2="1724" class="ext"/>
  <line x1="-56" y1="1700" x2="-80" y2="1724" class="ext"/>
  <line x1="0" y1="1700" x2="-24" y2="1724" class="ext"/>
  <line x1="56" y1="1700" x2="32" y2="1724" class="ext"/>
  <line x1="112" y1="1700" x2="88" y2="1724" class="ext"/>
  <line x1="168" y1="1700" x2="144" y2="1724" class="ext"/>
  <line x1="224" y1="1700" x2="200" y2="1724" class="ext"/>
  <line x1="280" y1="1700" x2="256" y2="1724" class="ext"/>
  <line x1="336" y1="1700" x2="312" y2="1724" class="ext"/>
  <line x1="392" y1="1700" x2="368" y2="1724" class="ext"/>
  <line x1="448" y1="1700" x2="424" y2="1724" class="ext"/>
  <line x1="504" y1="1700" x2="480" y2="1724" class="ext"/>
  <line x1="560" y1="1700" x2="536" y2="1724" class="ext"/>
  <line x1="616" y1="1700" x2="592" y2="1724" class="ext"/>
  <line x1="672" y1="1700" x2="648" y2="1724" class="ext"/>
  <line x1="728" y1="1700" x2="704" y2="1724" class="ext"/>
  <line x1="784" y1="1700" x2="760" y2="1724" class="ext"/>
  <line x1="840" y1="1700" x2="816" y2="1724" class="ext"/>
  <line x1="896" y1="1700" x2="872" y2="1724" class="ext"/>

  <!-- ============ FESTEMIDLER ============ -->
  <!-- J1: 2 x 6x90 pr. stolpe, Z 994 og 1038, Y -30 og 770 - langs X, ut av planet -->
  <circle cx="-30" cy="706" r="11" class="scrg"/>
  <circle cx="-30" cy="662" r="11" class="scrg"/>
  <circle cx="770" cy="706" r="11" class="scrg"/>
  <circle cx="770" cy="662" r="11" class="scrg"/>
  <!-- J1-B: 1 x 6x90 pr. kloss, langs X - Y −30 / 770, Z 949 -->
  <circle cx="-30" cy="751" r="11" class="scrg"/>
  <circle cx="770" cy="751" r="11" class="scrg"/>
  <!-- J2: 2 x 6x80, fra stolpens forside Y 788 inn i fremre sidevange, Z 1092 og 1136 -->
  <line x1="788" y1="608" x2="700" y2="608" class="scrl"/>
  <circle cx="788" cy="608" r="9" class="scr"/>
  <line x1="788" y1="564" x2="700" y2="564" class="scrl"/>
  <circle cx="788" cy="564" r="9" class="scr"/>
  <!-- J2-B: 2 x 6x120 rett NED gjennom vangen i stolpens endeved.
       Skruene ligger bak snittplanet (X ca. 30 og 70), derfor stiplet. -->
  <line x1="-34" y1="566" x2="-34" y2="700" class="gho"/>
  <line x1="-14" y1="566" x2="-14" y2="700" class="gho"/>
  <circle cx="-34" cy="570" r="9" class="scr"/>
  <circle cx="-14" cy="570" r="9" class="scr"/>
  <!-- J14: veggfeste gjennom bakre sidevange, ut i veggen -->
  <line x1="0" y1="608" x2="-150" y2="608" class="scrl"/>
  <circle cx="0" cy="608" r="9" class="scr"/>
  <polygon points="-150,608 -128,599 -128,617" class="scr"/>
  <line x1="0" y1="562" x2="-150" y2="562" class="scrl"/>
  <circle cx="0" cy="562" r="9" class="scr"/>
  <polygon points="-150,562 -128,553 -128,571" class="scr"/>
  <!-- J6: køyespile ned i begge vanger -->
  <line x1="-24" y1="501" x2="-24" y2="552" class="scrl"/>
  <circle cx="-24" cy="501" r="9" class="scr"/>
  <line x1="728" y1="501" x2="728" y2="552" class="scrl"/>
  <circle cx="728" cy="501" r="9" class="scr"/>
  <!-- J11: benkespile ned i begge benkevanger -->
  <line x1="-24" y1="1405" x2="-24" y2="1456" class="scrl"/>
  <circle cx="-24" cy="1405" r="9" class="scr"/>
  <line x1="728" y1="1405" x2="728" y2="1456" class="scrl"/>
  <circle cx="728" cy="1405" r="9" class="scr"/>
  <!-- J7: rekkverksbord, 2 x 5x60 fra sengesiden inn i stolpen -->
  <line x1="716" y1="262" x2="784" y2="262" class="scrl"/>
  <circle cx="716" cy="262" r="9" class="scr"/>
  <line x1="716" y1="212" x2="784" y2="212" class="scrl"/>
  <circle cx="716" cy="212" r="9" class="scr"/>
  <line x1="716" y1="89" x2="784" y2="89" class="scrl"/>
  <circle cx="716" cy="89" r="9" class="scr"/>
  <line x1="716" y1="39" x2="784" y2="39" class="scrl"/>
  <circle cx="716" cy="39" r="9" class="scr"/>
  <!-- J8: 2 x 6x80 fra fremre stolpes forside inn i benkevangen, Z 210,5 og 234,5 -->
  <line x1="788" y1="1489.5" x2="700" y2="1489.5" class="scrl"/>
  <circle cx="788" cy="1489.5" r="9" class="scr"/>
  <line x1="788" y1="1465.5" x2="700" y2="1465.5" class="scrl"/>
  <circle cx="788" cy="1465.5" r="9" class="scr"/>
  <!-- J8-B: skråskruer, hovedsakelig langs X - ut av planet -->
  <circle cx="-16" cy="1489.5" r="11" class="scrg"/>
  <circle cx="-16" cy="1465.5" r="11" class="scrg"/>
  <!-- J9-B: 1 x 6x90 fra klossens frie ende inn i stolpen, langs X - Y −30, Z 168 -->
  <circle cx="-30" cy="1532" r="11" class="scrg"/>
  <!-- J9-F: 1 x 6x70 fra klossens bakside inn i fremre stolpe - Y 716, Z 162 -->
  <line x1="716" y1="1538" x2="774" y2="1538" class="scrl"/>
  <circle cx="716" cy="1538" r="9" class="scr"/>
  <!-- J12: vinkelbeslag 40x40x20 under lektas ende, på stolpens innerflate -->
  <polyline points="-48,1353 -48,1313 -8,1313" class="stll"/>
  <circle cx="-38" cy="1338" r="11" class="scrg"/>
  <circle cx="-18" cy="1313" r="9" class="scr"/>

  <!-- ============ MÅLKJEDE Z (venstre) ============ -->
  <line x1="-48" y1="1700" x2="-400" y2="1700" class="ext"/>
  <line x1="-48" y1="1550" x2="-400" y2="1550" class="ext"/>
  <line x1="-380" y1="1700" x2="-380" y2="1550" class="dim" marker-start="url(#aS)" marker-end="url(#aE)"/>
  <text x="-392" y="1633" class="dm" text-anchor="end">150</text>
  <line x1="-48" y1="1514" x2="-400" y2="1514" class="ext"/>
  <line x1="-380" y1="1550" x2="-380" y2="1514" class="dim" marker-start="url(#aS)" marker-end="url(#aE)"/>
  <text x="-392" y="1540" class="dm" text-anchor="end">36</text>
  <line x1="-48" y1="1441" x2="-400" y2="1441" class="ext"/>
  <line x1="-380" y1="1514" x2="-380" y2="1441" class="dim" marker-start="url(#aS)" marker-end="url(#aE)"/>
  <text x="-392" y="1486" class="dm" text-anchor="end">73</text>
  <line x1="-48" y1="1405" x2="-400" y2="1405" class="ext"/>
  <line x1="-380" y1="1441" x2="-380" y2="1405" class="dim" marker-start="url(#aS)" marker-end="url(#aE)"/>
  <text x="-392" y="1431" class="dm" text-anchor="end">36</text>
  <line x1="-48" y1="1313" x2="-400" y2="1313" class="ext"/>
  <line x1="-380" y1="1405" x2="-380" y2="1313" class="dim" marker-start="url(#aS)" marker-end="url(#aE)"/>
  <text x="-392" y="1367" class="dm" text-anchor="end">92</text>
  <line x1="-48" y1="1218" x2="-400" y2="1218" class="ext"/>
  <line x1="-380" y1="1313" x2="-380" y2="1218" class="dim" marker-start="url(#aS)" marker-end="url(#aE)"/>
  <text x="-392" y="1274" class="dm" text-anchor="end">95</text>
  <line x1="-48" y1="769" x2="-400" y2="769" class="ext"/>
  <line x1="-380" y1="1218" x2="-380" y2="769" class="dim" marker-start="url(#aS)" marker-end="url(#aE)"/>
  <text x="-392" y="1002" class="dm" text-anchor="end">449</text>
  <line x1="-48" y1="733" x2="-400" y2="733" class="ext"/>
  <line x1="-380" y1="769" x2="-380" y2="733" class="dim" marker-start="url(#aS)" marker-end="url(#aE)"/>
  <text x="-392" y="759" class="dm" text-anchor="end">36</text>
  <line x1="-48" y1="635" x2="-400" y2="635" class="ext"/>
  <line x1="-380" y1="733" x2="-380" y2="635" class="dim" marker-start="url(#aS)" marker-end="url(#aE)"/>
  <text x="-392" y="692" class="dm" text-anchor="end">98</text>
  <line x1="-48" y1="537" x2="-400" y2="537" class="ext"/>
  <line x1="-380" y1="635" x2="-380" y2="537" class="dim" marker-start="url(#aS)" marker-end="url(#aE)"/>
  <text x="-392" y="594" class="dm" text-anchor="end">98</text>
  <line x1="-48" y1="501" x2="-400" y2="501" class="ext"/>
  <line x1="-380" y1="537" x2="-380" y2="501" class="dim" marker-start="url(#aS)" marker-end="url(#aE)"/>
  <text x="-392" y="527" class="dm" text-anchor="end">36</text>
  <line x1="-48" y1="361" x2="-400" y2="361" class="ext"/>
  <line x1="-380" y1="501" x2="-380" y2="361" class="dim" marker-start="url(#aS)" marker-end="url(#aE)"/>
  <text x="-392" y="439" class="dm" text-anchor="end">140</text>
  <line x1="-48" y1="286" x2="-400" y2="286" class="ext"/>
  <line x1="-380" y1="361" x2="-380" y2="286" class="dim" marker-start="url(#aS)" marker-end="url(#aE)"/>
  <text x="-392" y="331" class="dm" text-anchor="end">75</text>
  <line x1="-48" y1="188" x2="-400" y2="188" class="ext"/>
  <line x1="-380" y1="286" x2="-380" y2="188" class="dim" marker-start="url(#aS)" marker-end="url(#aE)"/>
  <text x="-392" y="245" class="dm" text-anchor="end">98</text>
  <line x1="-48" y1="113" x2="-400" y2="113" class="ext"/>
  <line x1="-380" y1="188" x2="-380" y2="113" class="dim" marker-start="url(#aS)" marker-end="url(#aE)"/>
  <text x="-392" y="158" class="dm" text-anchor="end">75</text>
  <line x1="-48" y1="15" x2="-400" y2="15" class="ext"/>
  <line x1="-380" y1="113" x2="-380" y2="15" class="dim" marker-start="url(#aS)" marker-end="url(#aE)"/>
  <text x="-392" y="72" class="dm" text-anchor="end">98</text>
  <line x1="-48" y1="0" x2="-400" y2="0" class="ext"/>
  <line x1="-380" y1="15" x2="-380" y2="0" class="dim" marker-start="url(#aS)" marker-end="url(#aE)"/>
  <text x="-392" y="14" class="dm" text-anchor="end">15</text>

  <line x1="-530" y1="1700" x2="-530" y2="635" class="dim" marker-start="url(#aS)" marker-end="url(#aE)"/>
  <text x="-542" y="1176" class="dm" text-anchor="end">1065  bakre stolpe</text>
  <line x1="-530" y1="635" x2="-530" y2="0" class="dim" marker-start="url(#aS)" marker-end="url(#aE)"/>
  <text x="-542" y="325" class="dm" text-anchor="end">635</text>
  <line x1="-690" y1="1700" x2="-690" y2="0" class="dim" marker-start="url(#aS)" marker-end="url(#aE)"/>
  <text x="-702" y="858" class="dm" text-anchor="end">1700  fremre stolpe</text>

  <!-- ============ HØYDETEKSTER ============ -->
  <line x1="-48" y1="1700" x2="-760" y2="1700" class="ext"/>
  <text x="-770" y="1700" class="sml" text-anchor="end">0  gulv</text>
  <line x1="-48" y1="1550" x2="-760" y2="1550" class="ext"/>
  <text x="-770" y="1550" class="sml" text-anchor="end">150  uk bærekloss J9-B (bak)</text>
  <line x1="-48" y1="1514" x2="-760" y2="1514" class="ext"/>
  <text x="-770" y="1514" class="sml" text-anchor="end">186  uk benkevange</text>
  <line x1="-48" y1="1441" x2="-760" y2="1441" class="ext"/>
  <text x="-770" y="1441" class="sml" text-anchor="end">259  ok benkevange = trinn 1</text>
  <line x1="-48" y1="1405" x2="-760" y2="1405" class="ext"/>
  <text x="-770" y="1405" class="sml" text-anchor="end">295  benketopp</text>
  <line x1="-48" y1="1313" x2="-760" y2="1313" class="ext"/>
  <text x="-770" y="1313" class="sml" text-anchor="end">387  uk bordbærelekt</text>
  <line x1="-48" y1="1218" x2="-760" y2="1218" class="ext"/>
  <text x="-770" y="1218" class="sml" text-anchor="end">482  ok bordbærelekt = trinn 2</text>
  <line x1="-48" y1="769" x2="-760" y2="769" class="ext"/>
  <text x="-770" y="769" class="sml" text-anchor="end">931  uk bærekloss J1-B</text>
  <line x1="-48" y1="733" x2="-760" y2="733" class="ext"/>
  <text x="-770" y="733" class="sml" text-anchor="end">967  uk endebjelke</text>
  <line x1="-48" y1="635" x2="-760" y2="635" class="ext"/>
  <text x="-770" y="635" class="sml" text-anchor="end">1065  ok bakre stolpe / uk vange</text>
  <line x1="-48" y1="537" x2="-760" y2="537" class="ext"/>
  <text x="-770" y="537" class="sml" text-anchor="end">1163  ok sidevange</text>
  <line x1="-48" y1="501" x2="-760" y2="501" class="ext"/>
  <text x="-770" y="501" class="sml" text-anchor="end">1199  spilebunn / uk madrass</text>
  <line x1="-48" y1="361" x2="-760" y2="361" class="ext"/>
  <text x="-770" y="361" class="sml" text-anchor="end">1339  ok madrass</text>
  <line x1="-48" y1="0" x2="-760" y2="0" class="ext"/>
  <text x="-770" y="0" class="sml" text-anchor="end">1700  ok fremre stolpe</text>

  <!-- ============ MÅLKJEDE Y (under) ============ -->
  <line x1="-48" y1="1700" x2="-48" y2="2130" class="ext"/>
  <line x1="-12" y1="1560" x2="-12" y2="2050" class="ext"/>
  <line x1="0" y1="1700" x2="0" y2="2130" class="ext"/>
  <line x1="704" y1="1700" x2="704" y2="2130" class="ext"/>
  <line x1="752" y1="1700" x2="752" y2="2130" class="ext"/>
  <line x1="788" y1="1700" x2="788" y2="2130" class="ext"/>
  <line x1="-48" y1="1780" x2="0" y2="1780" class="dim" marker-start="url(#aS)" marker-end="url(#aE)"/>
  <text x="-24" y="1807" class="dm" text-anchor="middle">48</text>
  <line x1="0" y1="1780" x2="704" y2="1780" class="dim" marker-start="url(#aS)" marker-end="url(#aE)"/>
  <text x="352" y="1807" class="dm" text-anchor="middle">704  fri bredde mellom sidevangene</text>
  <line x1="704" y1="1780" x2="752" y2="1780" class="dim" marker-start="url(#aS)" marker-end="url(#aE)"/>
  <text x="728" y="1807" class="dm" text-anchor="middle">48</text>
  <line x1="752" y1="1780" x2="788" y2="1780" class="dim" marker-start="url(#aS)" marker-end="url(#aE)"/>
  <text x="830" y="1807" class="dm" text-anchor="start">36  fremre stolpe</text>
  <line x1="-48" y1="1990" x2="-12" y2="1990" class="dim" marker-start="url(#aS)" marker-end="url(#aE)"/>
  <text x="-30" y="2040" class="dm" text-anchor="middle">36</text>
  <text x="-70" y="2078" class="sml" text-anchor="start">bakre stolpe (36 dyp) — vangen står 12 mm fram på romsiden</text>
  <line x1="-48" y1="1880" x2="752" y2="1880" class="dim" marker-start="url(#aS)" marker-end="url(#aE)"/>
  <text x="352" y="1907" class="dm" text-anchor="middle">800  madrass / køyespile / benkespile / løs plate</text>
  <line x1="-48" y1="2130" x2="788" y2="2130" class="dim" marker-start="url(#aS)" marker-end="url(#aE)"/>
  <text x="370" y="2157" class="dm" text-anchor="middle">836  total dybde (Y −48 … 788)</text>

  <!-- rekkverksbordets tykkelse -->
  <line x1="716" y1="15" x2="716" y2="-40" class="ext"/>
  <line x1="752" y1="15" x2="752" y2="-40" class="ext"/>
  <line x1="716" y1="-45" x2="752" y2="-45" class="dim" marker-start="url(#aS)" marker-end="url(#aE)"/>
  <text x="734" y="-58" class="dm" text-anchor="middle">36</text>

  <!-- 18 mm dypp for putene -->
  <line x1="300" y1="1423" x2="430" y2="1423" class="ext"/>
  <line x1="300" y1="1405" x2="430" y2="1405" class="ext"/>
  <line x1="390" y1="1423" x2="390" y2="1405" class="dim" marker-start="url(#aS)" marker-end="url(#aE)"/>
  <text x="404" y="1422" class="dmh" text-anchor="start">18</text>
  <text x="60" y="1372" class="sml" text-anchor="start">18 mm dypp for putene — platen ligger så mye lavere</text>

  <!-- hylla bak trinnet -->
  <line x1="715" y1="1218" x2="715" y2="1168" class="ext"/>
  <line x1="752" y1="1218" x2="752" y2="1168" class="ext"/>
  <line x1="715" y1="1176" x2="752" y2="1176" class="dim" marker-start="url(#aS)" marker-end="url(#aE)"/>
  <text x="734" y="1158" class="dmh" text-anchor="middle">37</text>

  <!-- ============ NOTAT: ASYMMETRI ============ -->
  <rect x="10" y="20" width="700" height="256" class="notebox"/>
  <text x="34" y="60" class="leg" text-anchor="start">ASYMMETRISK – SENGEN ER IKKE VENDBAR</text>
  <text x="34" y="110" class="sml" text-anchor="start">Bakre langside står mot vegg, og veggen ER barrieren: ingen</text>
  <text x="34" y="152" class="sml" text-anchor="start">rekkverksbord bak. De to bakre hjørnestolpene (36×98) står i</text>
  <text x="34" y="194" class="sml" text-anchor="start">bakre vangeplan og er kappet i Z 1065, så den bakre sidevangen</text>
  <text x="34" y="236" class="sml" text-anchor="start">bærer rett ned på 95 × 36 mm endeved. Front: 1700.</text>

  <!-- ============ NOTAT: SKRUERADER ============ -->
  <rect x="-1060" y="1830" width="960" height="300" class="notebox"/>
  <text x="-1036" y="1872" class="leg" text-anchor="start">SKRUERADER I RAMMELEDDENE</text>
  <text x="-1036" y="1918" class="sml" text-anchor="start">INGEN BOLT går inn i en stolpe. En 36 mm stolpe gir en M8 bare 18 mm</text>
  <text x="-1036" y="1956" class="sml" text-anchor="start">kantavstand mot kravet 24 (3d); en forboret 6 mm treskrue trenger 18.</text>
  <text x="-1036" y="1994" class="sml" text-anchor="start">Ingen forsenkte boltehoder finnes i denne sengen.</text>
  <text x="-1036" y="2042" class="sml" text-anchor="start">J1  endebjelke → stolpe:  Z 994 og 1038  (Y −30 / 770)</text>
  <text x="-1036" y="2078" class="sml" text-anchor="start">J2  fremre sidevange → stolpe:  Z 1092 og 1136  (X 50,5 fra veggen)</text>
  <text x="-1036" y="2114" class="sml" text-anchor="start">J8  fremre benkevange → stolpe:  Z 210,5 og 234,5  (X 50,5 fra veggen)</text>

  <!-- ============ HENVISNINGER HØYRE ============ -->
  <polyline points="752,60 862,50" class="ldr" marker-start="url(#aE)"/>
  <text x="880" y="46" class="lbl" text-anchor="start">Rekkverksbord, front 36×98 × 832 – øvre bånd Z 1587–1685</text>
  <text x="880" y="88" class="sml" text-anchor="start">ligger på INNSIDEN av stolpen, Y 716–752 · J7: 2× 5×60 fra sengesiden</text>

  <polyline points="752,237 862,226" class="ldr" marker-start="url(#aE)"/>
  <text x="880" y="222" class="lbl" text-anchor="start">Nedre bånd Z 1414–1512</text>
  <text x="880" y="264" class="sml" text-anchor="start">åpninger over madrassen: 75 / 75 / 15 mm — alle ≤ 75 (EN 747)</text>

  <polyline points="600,431 862,406" class="ldr" marker-start="url(#aE)"/>
  <text x="880" y="402" class="lbl" text-anchor="start">Madrass 800 × 140 (referanse) – FASTLÅST</text>
  <text x="880" y="444" class="sml" text-anchor="start">800 mm madrass i 800 mm klaring mellom veggen (Y −48) og de</text>
  <text x="880" y="480" class="sml" text-anchor="start">fremre stolpene (Y 752): 0 mm vandring, 0 mm spalte i hver ende.</text>

  <polyline points="400,519 862,546" class="ldr" marker-start="url(#aE)"/>
  <text x="880" y="542" class="lbl" text-anchor="start">Køyespile 36×98 × 800 – 14 like, én lengde</text>
  <text x="880" y="584" class="sml" text-anchor="start">ligger oppå BEGGE sidevanger, s/s 142,46, klaring 44,46 mm · J6</text>

  <polyline points="728,586 862,636" class="ldr" marker-start="url(#aE)"/>
  <text x="880" y="632" class="lbl" text-anchor="start">Sidevange, øvre 48×98 × 1984 – bak og front</text>
  <text x="880" y="674" class="sml" text-anchor="start">Den BAKRE hviler rett på bakre stolpetopp (Z 1065) – se J2-B.</text>

  <polyline points="400,684 862,731" class="ldr" marker-start="url(#aE)"/>
  <text x="880" y="727" class="lbl" text-anchor="start">Endebjelke 48×98 × 836  (Y −48 … 788)</text>
  <text x="880" y="769" class="sml" text-anchor="start">overkant flukter med underkant sidevange (Z 1065) · J1: 2× 6×90 pr. stolpe</text>

  <polyline points="782,751 862,826" class="ldr" marker-start="url(#aE)"/>
  <text x="880" y="822" class="lbl" text-anchor="start">Bærekloss, endebjelke (J1-B) 36×48, 36 lang – ok Z 967</text>
  <text x="880" y="864" class="sml" text-anchor="start">hele vertikallasten går tre mot tre; skruene er rene bånd</text>

  <polyline points="770,980 862,941" class="ldr" marker-start="url(#aE)"/>
  <text x="880" y="937" class="lbl" text-anchor="start">Hjørnestolpe, front 36×98 × 1700</text>

  <polyline points="-30,905 620,905 862,978" class="ldr" marker-start="url(#aE)"/>
  <text x="880" y="978" class="lbl" text-anchor="start">Hjørnestolpe, bak (veggside) 36×98 × 1065</text>
  <text x="880" y="1020" class="sml" text-anchor="start">Står I bakre vangeplan (Y −48 … −12), bakflaten ER veggflaten, og</text>
  <text x="880" y="1056" class="sml" text-anchor="start">er kappet i vangens underkant. J2-B: 2× treskrue 6×120 rett NED</text>
  <text x="880" y="1092" class="sml" text-anchor="start">gjennom vangen i stolpens endeved. Ikke noe beslag — vangen står</text>
  <text x="880" y="1128" class="sml" text-anchor="start">12 mm fram for stolpen. Aldri noe på veggsiden.</text>

  <polyline points="-150,600 260,790 640,1060 862,1180" class="ldr" marker-start="url(#aE)"/>
  <text x="880" y="1180" class="lbl" text-anchor="start">J14 VEGGFESTE (obligatorisk)</text>
  <text x="880" y="1222" class="sml" text-anchor="start">6 treskruer rett gjennom den bakre sidevangen (48×98 × 1984) og</text>
  <text x="880" y="1258" class="sml" text-anchor="start">inn i stenderne. Ingen brakett, ingen kloss: vangen ligger flatt mot</text>
  <text x="880" y="1294" class="sml" text-anchor="start">veggen i hele sin lengde, så festet gir også midtopplegg.</text>

  <polyline points="-27,1265 400,1330 862,1348" class="ldr" marker-start="url(#aE)"/>
  <text x="880" y="1348" class="lbl" text-anchor="start">Bordbærelekt, bak 21×95 × 1794 (X 98–1892), ok Z 482</text>
  <text x="880" y="1390" class="sml" text-anchor="start">J12: vinkelbeslag 40×40×20 under hver ende, på stolpens innerflate</text>

  <polyline points="400,1422 700,1430 862,1428" class="ldr" marker-start="url(#aE)"/>
  <text x="880" y="1424" class="lbl" text-anchor="start">Benkespile 36×98 × 800, X 98–645, s/s 112,25, ok Z 295 · J11</text>

  <polyline points="728,1478 862,1476" class="ldr" marker-start="url(#aE)"/>
  <text x="880" y="1472" class="lbl" text-anchor="start">Benkevange 48×73 – bak 1794 (X 98–1892), front i to biter à 642</text>
  <text x="880" y="1514" class="sml" text-anchor="start">Bærekloss: J9-B bak 48×48×36 (Z 150–186) på stolpens X-innerflate,</text>
  <text x="880" y="1550" class="sml" text-anchor="start">J9-F front 48×36×48 (Z 138–186) på stolpens bakside – kortere skrue.</text>

  <polyline points="200,1432 200,1620 862,1614" class="ldr" marker-start="url(#aE)"/>
  <text x="880" y="1610" class="lbl" text-anchor="start">Løs plate 18 mm: sengemodus Z 259–277 (kraftig stiplet),</text>
  <text x="880" y="1652" class="sml" text-anchor="start">bordmodus Z 482–500 (fint stiplet), begge med avstivningslekt 48×73 ×</text>
  <text x="880" y="1688" class="sml" text-anchor="start">715 under. Platen ligger ved X 655–1335, altså IKKE i dette snittet –</text>
  <text x="880" y="1724" class="sml" text-anchor="start">vist her bare for høydene.</text>

  <!-- ============ J-MERKER ============ -->
  <text x="-125" y="700" class="jl" text-anchor="start">J1</text>
  <text x="-125" y="775" class="jl" text-anchor="start">J1-B</text>
  <text x="620" y="600" class="jl" text-anchor="start">J2</text>
  <text x="24" y="640" class="jl" text-anchor="start">J2-B</text>
  <text x="-190" y="545" class="jl" text-anchor="start">J14</text>
  <text x="600" y="480" class="jl" text-anchor="start">J6</text>
  <text x="600" y="228" class="jl" text-anchor="start">J7</text>
  <text x="620" y="1520" class="jl" text-anchor="start">J8</text>
  <text x="24" y="1478" class="jl" text-anchor="start">J8-B</text>
  <text x="-130" y="1580" class="jl" text-anchor="start">J9-B</text>
  <text x="620" y="1590" class="jl" text-anchor="start">J9-F</text>
  <text x="300" y="1478" class="jl" text-anchor="start">J11</text>
  <text x="24" y="1258" class="jl" text-anchor="start">J12</text>

  <!-- ============ TEGNFORKLARING ============ -->
  <rect x="-1060" y="2260" width="3010" height="370" class="legbox"/>
  <text x="-1036" y="2294" class="leg" text-anchor="start">TEGNFORKLARING</text>
  <rect x="-1036" y="2340" width="54" height="30" class="rai"/>
  <text x="-966" y="2334" class="sml" text-anchor="start">Vange / bjelke i snitt (48×98, 48×73)</text>
  <rect x="-1036" y="2384" width="54" height="30" class="brd"/>
  <text x="-966" y="2378" class="sml" text-anchor="start">Bord i snitt: spile, rekkverksbord, bordbærelekt</text>
  <rect x="-1036" y="2428" width="54" height="30" class="blk"/>
  <text x="-966" y="2422" class="sml" text-anchor="start">Bærekloss i snitt (36×48 / 48×48)</text>
  <rect x="-1036" y="2472" width="54" height="30" class="pstb"/>
  <text x="-966" y="2466" class="sml" text-anchor="start">Stolpe BAK snittplanet (36×98)</text>
  <rect x="-1036" y="2516" width="54" height="30" class="mat"/>
  <text x="-966" y="2510" class="sml" text-anchor="start">Madrass</text>
  <rect x="120" y="2340" width="54" height="30" class="pnlb"/>
  <text x="190" y="2334" class="sml" text-anchor="start">Løs plate, sengemodus</text>
  <rect x="120" y="2384" width="54" height="30" class="pnlg"/>
  <text x="190" y="2378" class="sml" text-anchor="start">Løs plate / avstivningslekt, bordmodus</text>
  <rect x="120" y="2428" width="54" height="30" class="blkb"/>
  <text x="190" y="2422" class="sml" text-anchor="start">Bærekloss bak snittplanet</text>
  <rect x="120" y="2472" width="54" height="30" class="gho"/>
  <text x="190" y="2466" class="sml" text-anchor="start">Del utenfor snittet eller skjult (her: rungetrinnene)</text>
  <rect x="120" y="2516" width="54" height="30" class="wall"/>
  <text x="190" y="2510" class="sml" text-anchor="start">Vegg</text>
  <circle cx="1240" cy="2355" r="9" class="scr"/>
  <line x1="1240" y1="2355" x2="1300" y2="2355" class="scrl"/>
  <text x="1330" y="2349" class="sml" text-anchor="start">Treskrue i tegningsplanet – prikken er hodet</text>
  <circle cx="1240" cy="2399" r="11" class="scrg"/>
  <text x="1330" y="2393" class="sml" text-anchor="start">Treskrue ut av tegningsplanet (langs X)</text>
  <line x1="1226" y1="2428" x2="1226" y2="2458" class="stll"/>
  <text x="1330" y="2437" class="sml" text-anchor="start">Stålbeslag: vinkelbeslag (J12, J10)</text>
  <text x="1330" y="2481" class="sml" text-anchor="start">J-nr = sammenføyning, se docs/generated/beslagliste.md</text>
  <text x="1330" y="2525" class="sml" text-anchor="start">Ingen bolter, ingen forsenkte boltehoder noe sted i sengen</text>
  <text x="-1036" y="2588" class="sml" text-anchor="start">Alle mål i mm. Snitt A–A ved X = 108, gjennom endebjelken i venstre ende. Høyre ende er speilvendt. Målestokk: leses ved 1600 px bredde.</text>
</svg>
